<mxfile host="Electron" modified="2024-07-10T12:26:11.546Z" agent="Mozilla/5.0 (Windows NT 10.0; Win64; x64) AppleWebKit/537.36 (KHTML, like Gecko) draw.io/24.6.1 Chrome/124.0.6367.207 Electron/30.0.6 Safari/537.36" etag="CNgUX7EMJC1xUg3OgMJ5" version="24.6.1" type="device">
  <diagram name="第 1 页" id="BvJhwwH0R-5GkbBT7oYd">
    <mxGraphModel dx="1050" dy="621" grid="1" gridSize="10" guides="1" tooltips="1" connect="1" arrows="1" fold="1" page="1" pageScale="1" pageWidth="827" pageHeight="1169" math="0" shadow="0">
      <root>
        <mxCell id="0" />
        <mxCell id="1" parent="0" />
        <mxCell id="ZX8t9lbSDTVUcBtl3fXe-6" value="" style="group" vertex="1" connectable="0" parent="1">
          <mxGeometry x="360" y="100" width="60" height="21" as="geometry" />
        </mxCell>
        <mxCell id="ZX8t9lbSDTVUcBtl3fXe-2" value="" style="endArrow=none;html=1;rounded=0;strokeWidth=5;" edge="1" parent="ZX8t9lbSDTVUcBtl3fXe-6">
          <mxGeometry width="50" height="50" relative="1" as="geometry">
            <mxPoint as="sourcePoint" />
            <mxPoint x="60" as="targetPoint" />
          </mxGeometry>
        </mxCell>
        <mxCell id="ZX8t9lbSDTVUcBtl3fXe-3" value="" style="endArrow=none;html=1;rounded=0;strokeWidth=5;" edge="1" parent="ZX8t9lbSDTVUcBtl3fXe-6">
          <mxGeometry width="50" height="50" relative="1" as="geometry">
            <mxPoint y="10" as="sourcePoint" />
            <mxPoint x="20" y="10" as="targetPoint" />
          </mxGeometry>
        </mxCell>
        <mxCell id="ZX8t9lbSDTVUcBtl3fXe-4" value="" style="endArrow=none;html=1;rounded=0;strokeWidth=5;" edge="1" parent="ZX8t9lbSDTVUcBtl3fXe-6">
          <mxGeometry width="50" height="50" relative="1" as="geometry">
            <mxPoint x="40" y="10" as="sourcePoint" />
            <mxPoint x="60" y="10" as="targetPoint" />
          </mxGeometry>
        </mxCell>
        <mxCell id="ZX8t9lbSDTVUcBtl3fXe-5" value="" style="endArrow=none;html=1;rounded=0;strokeWidth=5;" edge="1" parent="ZX8t9lbSDTVUcBtl3fXe-6">
          <mxGeometry width="50" height="50" relative="1" as="geometry">
            <mxPoint y="21" as="sourcePoint" />
            <mxPoint x="60" y="21" as="targetPoint" />
          </mxGeometry>
        </mxCell>
        <mxCell id="ZX8t9lbSDTVUcBtl3fXe-14" value="" style="group" vertex="1" connectable="0" parent="1">
          <mxGeometry x="360" y="258" width="60" height="26" as="geometry" />
        </mxCell>
        <mxCell id="ZX8t9lbSDTVUcBtl3fXe-8" value="" style="endArrow=none;html=1;rounded=0;strokeWidth=5;" edge="1" parent="ZX8t9lbSDTVUcBtl3fXe-14">
          <mxGeometry width="50" height="50" relative="1" as="geometry">
            <mxPoint y="12" as="sourcePoint" />
            <mxPoint x="60" y="12" as="targetPoint" />
          </mxGeometry>
        </mxCell>
        <mxCell id="ZX8t9lbSDTVUcBtl3fXe-9" value="" style="endArrow=none;html=1;rounded=0;strokeWidth=5;" edge="1" parent="ZX8t9lbSDTVUcBtl3fXe-14">
          <mxGeometry width="50" height="50" relative="1" as="geometry">
            <mxPoint as="sourcePoint" />
            <mxPoint x="20" as="targetPoint" />
          </mxGeometry>
        </mxCell>
        <mxCell id="ZX8t9lbSDTVUcBtl3fXe-10" value="" style="endArrow=none;html=1;rounded=0;strokeWidth=5;" edge="1" parent="ZX8t9lbSDTVUcBtl3fXe-14">
          <mxGeometry width="50" height="50" relative="1" as="geometry">
            <mxPoint x="39" as="sourcePoint" />
            <mxPoint x="59" as="targetPoint" />
          </mxGeometry>
        </mxCell>
        <mxCell id="ZX8t9lbSDTVUcBtl3fXe-12" value="" style="endArrow=none;html=1;rounded=0;strokeWidth=5;" edge="1" parent="ZX8t9lbSDTVUcBtl3fXe-14">
          <mxGeometry width="50" height="50" relative="1" as="geometry">
            <mxPoint y="26" as="sourcePoint" />
            <mxPoint x="20" y="26" as="targetPoint" />
          </mxGeometry>
        </mxCell>
        <mxCell id="ZX8t9lbSDTVUcBtl3fXe-13" value="" style="endArrow=none;html=1;rounded=0;strokeWidth=5;" edge="1" parent="ZX8t9lbSDTVUcBtl3fXe-14">
          <mxGeometry width="50" height="50" relative="1" as="geometry">
            <mxPoint x="39" y="26" as="sourcePoint" />
            <mxPoint x="59" y="26" as="targetPoint" />
          </mxGeometry>
        </mxCell>
        <mxCell id="ZX8t9lbSDTVUcBtl3fXe-15" value="离火" style="text;html=1;align=center;verticalAlign=middle;whiteSpace=wrap;rounded=0;fontSize=14;" vertex="1" parent="1">
          <mxGeometry x="360" y="70" width="60" height="30" as="geometry" />
        </mxCell>
        <mxCell id="ZX8t9lbSDTVUcBtl3fXe-16" value="坎水" style="text;html=1;align=center;verticalAlign=middle;whiteSpace=wrap;rounded=0;fontSize=14;" vertex="1" parent="1">
          <mxGeometry x="354" y="300" width="60" height="30" as="geometry" />
        </mxCell>
        <mxCell id="ZX8t9lbSDTVUcBtl3fXe-17" value="" style="endArrow=classic;html=1;rounded=0;" edge="1" parent="1">
          <mxGeometry width="50" height="50" relative="1" as="geometry">
            <mxPoint x="380" y="250" as="sourcePoint" />
            <mxPoint x="380" y="120" as="targetPoint" />
          </mxGeometry>
        </mxCell>
        <mxCell id="ZX8t9lbSDTVUcBtl3fXe-18" value="肝木" style="ellipse;whiteSpace=wrap;html=1;fontSize=14;fillColor=#d5e8d4;strokeColor=#82b366;" vertex="1" parent="1">
          <mxGeometry x="380" y="170" width="80" height="50" as="geometry" />
        </mxCell>
      </root>
    </mxGraphModel>
  </diagram>
</mxfile>
